<svg xmlns="http://www.w3.org/2000/svg" viewBox="0 0 64 64" role="img" aria-label="Amor Fati">
  <rect width="64" height="64" rx="14" fill="#0f0f0f" />
  <circle cx="32" cy="32" r="23" fill="none" stroke="#d4af37" stroke-width="3.5" />
  <path
    d="M19 43L28.6 21h6.8L45 43h-6.1l-1.8-4.6H26.8L25 43H19zm9.6-9h6.8L32 25.2 28.6 34z"
    fill="#f7f4ec"
  />
  <path
    d="M41 23h4.9c2.8 0 4.5 1.7 4.5 4.1 0 2.1-1.3 3.6-3.4 4l3.8 6.9h-5.1l-3.1-6.4H41V38h-4.5V23H41zm0 6.4h1.8c1.2 0 1.9-.7 1.9-1.7s-.7-1.7-1.9-1.7H41v3.4z"
    fill="#d4af37"
  />
</svg>
